<svg xmlns="http://www.w3.org/2000/svg" width="51" height="51" viewBox="0 0 51 51">
  <defs>
    <style>
      .cls-1 {
        fill: none;
      }

      .cls-2 {
        fill: #cdd3d9;
      }
    </style>
  </defs>
  <g id="twitter" transform="translate(-186 -5211)">
    <rect id="Rectangle_858" data-name="Rectangle 858" class="cls-1" width="51" height="51" transform="translate(186 5211)"/>
    <path id="twitter_1_" data-name="twitter (1)" class="cls-2" d="M.526,22.245a16.056,16.056,0,0,0,8.621,2.484A15.766,15.766,0,0,0,25.14,8.7,6.547,6.547,0,0,0,27.5,4.267a.866.866,0,0,0-1.3-.746,3.576,3.576,0,0,1-2.907.488,6.174,6.174,0,0,0-7.313-.984,5.941,5.941,0,0,0-3.225,5.568A14.326,14.326,0,0,1,3.462,3.517a.866.866,0,0,0-1.413.115,6.025,6.025,0,0,0-.135,5.951.9.9,0,0,0-.752.9,6.1,6.1,0,0,0,2.125,4.605.863.863,0,0,0-.221.9,6.206,6.206,0,0,0,3.513,3.763,10.066,10.066,0,0,1-5.483.915.865.865,0,0,0-.569,1.587Zm8.857-2.206a.865.865,0,0,0-.508-1.549,4.509,4.509,0,0,1-3.541-1.842,6.1,6.1,0,0,0,1.18-.189.865.865,0,0,0-.055-1.682A4.438,4.438,0,0,1,3.1,11.756a5.967,5.967,0,0,0,1.319.175.865.865,0,0,0,.492-1.586,4.3,4.3,0,0,1-1.84-4.69,16.074,16.074,0,0,0,10.648,4.753A.863.863,0,0,0,14.6,9.351a4.218,4.218,0,0,1,2.2-4.8,4.42,4.42,0,0,1,5.4.821c.515.543,2.254.564,3.138.357A5.572,5.572,0,0,1,23.766,7.58a.865.865,0,0,0-.368.75A14.058,14.058,0,0,1,19.528,18.66,14.158,14.158,0,0,1,9.148,23a14.518,14.518,0,0,1-4.658-.763,11.675,11.675,0,0,0,4.894-2.2Z" transform="translate(197.203 5222.838)"/>
  </g>
</svg>
