<svg xmlns="http://www.w3.org/2000/svg" width="51" height="51" viewBox="0 0 51 51">
  <defs>
    <style>
      .cls-1 {
        fill: none;
      }

      .cls-2 {
        fill: #cdd3d9;
      }
    </style>
  </defs>
  <g id="instagram_2_" data-name="instagram (2)" transform="translate(13 13)">
    <rect id="Rectangle_859" data-name="Rectangle 859" class="cls-1" width="51" height="51" transform="translate(-13 -13)"/>
    <path id="Path_1014" data-name="Path 1014" class="cls-2" d="M25.11,7.27a9.036,9.036,0,0,0-.575-3A6.335,6.335,0,0,0,20.917.652a9.059,9.059,0,0,0-3-.575C16.593.015,16.173,0,12.815,0s-3.778.015-5.1.072a9.039,9.039,0,0,0-3,.575,6.034,6.034,0,0,0-2.193,1.43A6.088,6.088,0,0,0,1.1,4.266a9.06,9.06,0,0,0-.575,3C.463,8.589.449,9.009.449,12.367s.015,3.778.072,5.1a9.035,9.035,0,0,0,.575,3,6.334,6.334,0,0,0,3.618,3.618,9.061,9.061,0,0,0,3,.575c1.319.058,1.739.072,5.1.072s3.778-.014,5.1-.072a9.034,9.034,0,0,0,3-.575,6.325,6.325,0,0,0,3.618-3.618,9.066,9.066,0,0,0,.575-3c.058-1.319.072-1.739.072-5.1s0-3.778-.063-5.1Zm-2.227,10.1a6.778,6.778,0,0,1-.425,2.295,4.1,4.1,0,0,1-2.348,2.348,6.8,6.8,0,0,1-2.295.425c-1.3.058-1.7.072-4.995.072s-3.7-.014-5-.072a6.775,6.775,0,0,1-2.295-.425,3.805,3.805,0,0,1-1.42-.923,3.845,3.845,0,0,1-.923-1.42,6.8,6.8,0,0,1-.425-2.295c-.058-1.3-.072-1.7-.072-5s.014-3.7.072-4.995a6.774,6.774,0,0,1,.425-2.295,3.759,3.759,0,0,1,.928-1.42,3.839,3.839,0,0,1,1.42-.923A6.807,6.807,0,0,1,7.83,2.319c1.3-.058,1.7-.072,4.995-.072s3.7.015,5,.072a6.778,6.778,0,0,1,2.295.425,3.8,3.8,0,0,1,1.42.923,3.844,3.844,0,0,1,.923,1.42,6.806,6.806,0,0,1,.425,2.295c.058,1.3.072,1.7.072,4.995s-.015,3.686-.072,4.99Zm0,0" transform="translate(-0.448 0)"/>
    <path id="Path_1015" data-name="Path 1015" class="cls-2" d="M131.3,124.5a6.353,6.353,0,1,0,6.353,6.353A6.354,6.354,0,0,0,131.3,124.5Zm0,10.473a4.121,4.121,0,1,1,4.121-4.121A4.121,4.121,0,0,1,131.3,134.973Zm0,0" transform="translate(-118.934 -118.486)"/>
    <path id="Path_1016" data-name="Path 1016" class="cls-2" d="M365.416,90.085a1.483,1.483,0,1,1-1.483-1.483A1.483,1.483,0,0,1,365.416,90.085Zm0,0" transform="translate(-344.962 -84.322)"/>
  </g>
</svg>
