<svg xmlns="http://www.w3.org/2000/svg" width="51" height="51" viewBox="0 0 51 51">
  <g id="Aparat" transform="translate(-13 -35.5)">
    <rect id="Rectangle_854" data-name="Rectangle 854" width="51" height="51" transform="translate(13 35.5)" fill="none"/>
    <g id="Group_650" data-name="Group 650" transform="translate(26 48.5)">
      <path id="Path_1020" data-name="Path 1020" d="M107.023,91.566l-2.272-.6a3.818,3.818,0,0,0-4.67,2.71l-.569,2.14A11.692,11.692,0,0,1,107.023,91.566Z" transform="translate(-96.381 -90.834)" fill="#1e2022"/>
      <path id="Path_1021" data-name="Path 1021" d="M91.519,130.167l-.556,2.094a3.818,3.818,0,0,0,2.71,4.67l2.175.578A11.7,11.7,0,0,1,91.519,130.167Z" transform="translate(-90.834 -115.974)" fill="#1e2022"/>
      <path id="Path_1022" data-name="Path 1022" d="M146.991,99.945,144.56,99.3a11.693,11.693,0,0,1,4.474,7.831l.668-2.515A3.818,3.818,0,0,0,146.991,99.945Z" transform="translate(-125.173 -96.244)" fill="#1e2022"/>
      <path id="Path_1023" data-name="Path 1023" d="M129.522,149.022l2.327.618a3.818,3.818,0,0,0,4.67-2.71l.655-2.467A11.7,11.7,0,0,1,129.522,149.022Z" transform="translate(-115.562 -125.111)" fill="#1e2022"/>
    </g>
    <path id="Path_1024" data-name="Path 1024" d="M106.065,95.375a10.69,10.69,0,1,0,10.69,10.69A10.69,10.69,0,0,0,106.065,95.375Zm-6.054,5.334a3.054,3.054,0,1,1,2.422,3.577A3.055,3.055,0,0,1,100.012,100.709Zm4.442,9.236a3.054,3.054,0,1,1-2.422-3.577A3.054,3.054,0,0,1,104.454,109.945Zm1.3-2.472a1.357,1.357,0,1,1,1.59-1.076A1.358,1.358,0,0,1,105.751,107.473Zm6.368,3.948a3.054,3.054,0,1,1-2.422-3.577A3.054,3.054,0,0,1,112.119,111.421Zm-2.021-5.66a3.054,3.054,0,1,1,3.577-2.422A3.054,3.054,0,0,1,110.1,105.762Z" transform="translate(-67.736 -45.236)" fill="#ff6a6a"/>
  </g>
</svg>
