<svg xmlns="http://www.w3.org/2000/svg" width="51" height="51" viewBox="0 0 51 51">
  <defs>
    <style>
      .cls-1 {
        fill: none;
      }

      .cls-2 {
        fill: #cdd3d9;
      }
    </style>
  </defs>
  <g id="telegram" transform="translate(-237 -5211)">
    <rect id="Rectangle_855" data-name="Rectangle 855" class="cls-1" width="51" height="51" transform="translate(237 5211)"/>
    <path id="telegram_2_" data-name="telegram (2)" class="cls-2" d="M18,24.663a3.874,3.874,0,0,1-2.149-.652L10.682,20.57a.964.964,0,1,1,1.068-1.6l5.172,3.441a1.956,1.956,0,0,0,3.011-1.3L22.8,4.21A1.955,1.955,0,0,0,20.073,2.1L3.171,9.656a1.954,1.954,0,0,0-.285,3.412l2.36,1.57a.964.964,0,0,1-1.068,1.6l-2.36-1.57A3.891,3.891,0,0,1,2.384,7.9L19.286.339A3.882,3.882,0,0,1,24.7,4.532l-2.865,16.9A3.889,3.889,0,0,1,18,24.663ZM8.47,23.7v-4.45a3.292,3.292,0,0,1,.969-2.324L18.5,7.958a.964.964,0,0,0-1.356-1.369L8.083,15.561a5.232,5.232,0,0,0-1.54,3.693V23.7a.964.964,0,1,0,1.927,0Z" transform="translate(249.904 5224)"/>
  </g>
</svg>
