<svg xmlns="http://www.w3.org/2000/svg" xmlns:xlink="http://www.w3.org/1999/xlink" width="69" height="69" viewBox="0 0 69 69">
  <defs>
    <linearGradient id="linear-gradient" x1="40.886" y1="0.419" x2="41.045" y2="0.207" gradientUnits="objectBoundingBox">
      <stop offset="0" stop-color="#43386b"/>
      <stop offset="1" stop-color="#7662bd"/>
    </linearGradient>
    <linearGradient id="linear-gradient-2" x1="37.075" y1="0.419" x2="37.234" y2="0.207" xlink:href="#linear-gradient"/>
    <linearGradient id="linear-gradient-3" x1="14.81" y1="0.5" x2="14.947" y2="0.5" gradientUnits="objectBoundingBox">
      <stop offset="0" stop-color="#dea861"/>
      <stop offset="1" stop-color="#cc8241"/>
    </linearGradient>
    <linearGradient id="linear-gradient-4" x1="14.649" y1="0.231" x2="15.163" y2="0.728" gradientUnits="objectBoundingBox">
      <stop offset="0" stop-color="#dea861"/>
      <stop offset="1" stop-color="#ebcba0"/>
    </linearGradient>
    <linearGradient id="linear-gradient-5" x1="0.811" y1="0.824" x2="0.318" y2="0.075" gradientUnits="objectBoundingBox">
      <stop offset="0" stop-color="#e37a34"/>
      <stop offset="1" stop-color="#ffc538"/>
    </linearGradient>
    <linearGradient id="linear-gradient-6" x1="0.5" y1="0.965" x2="0.5" y2="0.107" xlink:href="#linear-gradient"/>
    <linearGradient id="linear-gradient-7" x1="0.5" y1="1.141" x2="0.5" y2="-0.1" xlink:href="#linear-gradient"/>
    <linearGradient id="linear-gradient-8" x1="0.5" y1="1.141" x2="0.5" y2="-0.1" xlink:href="#linear-gradient"/>
    <linearGradient id="linear-gradient-9" x1="0.14" y1="0.5" x2="0.261" y2="0.5" xlink:href="#linear-gradient"/>
    <linearGradient id="linear-gradient-10" x1="0.5" y1="0.965" x2="0.5" y2="0.107" gradientUnits="objectBoundingBox">
      <stop offset="0" stop-color="#43386b"/>
      <stop offset="1" stop-color="#594a8e"/>
    </linearGradient>
  </defs>
  <g id="_030-delivery_truck" data-name="030-delivery truck" transform="translate(-34.617 1.16)">
    <path id="Path_4986" data-name="Path 4986" d="M67.465,275.768l5.369-2.735h0a4.064,4.064,0,0,1,3.608.308,11.675,11.675,0,0,1,5.651,9.567c0,2.027-.766,3.45-1.973,4.057v0L74.966,289.6Z" transform="translate(-26.835 -236.868)" fill="url(#linear-gradient)"/>
    <path id="Path_4987" data-name="Path 4987" d="M255.246,384.182l5.369-2.735h0a4.064,4.064,0,0,1,3.608.308,11.675,11.675,0,0,1,5.651,9.567c0,2.027-.766,3.45-1.973,4.057v0l-5.155,2.629Z" transform="translate(-186.741 -331.024)" fill="url(#linear-gradient-2)"/>
    <g id="Group_4340" data-name="Group 4340" transform="translate(35.979 0)">
      <path id="Path_4988" data-name="Path 4988" d="M36.133,100.121V77.3l41.335,1.57v22.818a1.513,1.513,0,0,1-.876,1.344l-16.374,8.376a4.187,4.187,0,0,1-3.764,0l-19.444-9.946a1.513,1.513,0,0,1-.876-1.344Z" transform="translate(-36.133 -67.136)" fill="url(#linear-gradient-3)"/>
      <path id="Path_4989" data-name="Path 4989" d="M76.591,10.394,57.147.447a4.187,4.187,0,0,0-3.764,0L37.009,8.823a1.47,1.47,0,0,0,0,2.689l19.444,9.947a4.187,4.187,0,0,0,3.764,0l16.374-8.376A1.469,1.469,0,0,0,76.591,10.394Z" transform="translate(-36.133 0)" fill="url(#linear-gradient-4)"/>
      <path id="Path_4990" data-name="Path 4990" d="M114.629,35.789,93.745,46.472l-5.54-2.834,20.884-10.683Z" transform="translate(-80.475 -28.621)" fill="#dea861"/>
      <path id="Path_4991" data-name="Path 4991" d="M124.1,41.613,103.219,52.3l1.085.555,20.884-10.683Z" transform="translate(-93.26 -36.14)" fill="#cc8241"/>
      <path id="Path_4992" data-name="Path 4992" d="M93.745,117.015v4.054l-5.54-2.834v-4.054Z" transform="translate(-80.475 -99.164)" fill="#ba5c25"/>
    </g>
    <path id="Path_4993" data-name="Path 4993" d="M227.611,155.758l-6.566-3.358-2.823-10.485a6.73,6.73,0,0,0-3.517-4.179l-8.51-4.358a1.467,1.467,0,0,0-1.5.1l-14.875,7.609-2.983,1.526,24.209,38.08,17.88-9.143V157.782A2.3,2.3,0,0,0,227.611,155.758Z" transform="translate(-128.49 -115.696)" fill="url(#linear-gradient-5)"/>
    <path id="Path_4994" data-name="Path 4994" d="M361.386,403.375l2.494-1.276a.224.224,0,0,1,.334.171v1.94a.725.725,0,0,1-.415.637l-2.494,1.276a.224.224,0,0,1-.334-.171v-1.94A.726.726,0,0,1,361.386,403.375Z" transform="translate(-276.772 -349.19)" fill="#e9e5f6"/>
    <path id="Path_4995" data-name="Path 4995" d="M444.059,355.6l2.494-1.276a.224.224,0,0,1,.334.171v1.94a.725.725,0,0,1-.415.637l-2.494,1.276a.224.224,0,0,1-.334-.171v-1.94A.725.725,0,0,1,444.059,355.6Z" transform="translate(-347.173 -307.696)" fill="#e9e5f6"/>
    <path id="Path_4996" data-name="Path 4996" d="M74.674,221.965l-2.82-10.476a6.73,6.73,0,0,0-3.517-4.179l-8.51-4.358a1.343,1.343,0,0,0-2,1.025v14.736a1.529,1.529,0,0,1-2.283,1.165l-18.287-9.4a.872.872,0,0,0-1.3.665v4.317a2.981,2.981,0,0,0,1.707,2.62l36.322,18.638,8.578,4.4V227.348a2.3,2.3,0,0,0-1.319-2.024Z" transform="translate(0 -176.119)" fill="#ffc538"/>
    <path id="Path_4997" data-name="Path 4997" d="M307.065,208.169l-15.252,7.8,2,7.935,15.252-7.8Z" transform="translate(-217.88 -180.79)" fill="url(#linear-gradient-6)"/>
    <path id="Path_4998" data-name="Path 4998" d="M242.538,405.727c0-3.687,2.53-5.382,5.651-3.785a11.674,11.674,0,0,1,5.651,9.567c0,3.687-2.53,5.382-5.651,3.785A11.674,11.674,0,0,1,242.538,405.727Z" transform="translate(-175.92 -348.554)" fill="url(#linear-gradient-7)"/>
    <path id="Path_4999" data-name="Path 4999" d="M256.9,424.952c0-2.3,1.575-3.351,3.519-2.357a7.269,7.269,0,0,1,3.519,5.957c0,2.3-1.575,3.351-3.519,2.357A7.269,7.269,0,0,1,256.9,424.952Z" transform="translate(-188.154 -366.689)" fill="#e9e5f6"/>
    <path id="Path_20168" data-name="Path 20168" d="M1.421,0C2.266.036,3,1.178,3.063,2.551S2.492,5.009,1.647,4.974.067,3.8,0,2.423.576-.035,1.421,0Z" transform="translate(69.908 58.35) rotate(-23.078)" fill="#7662bd"/>
    <path id="Path_5000" data-name="Path 5000" d="M54.756,297.312c0-3.687,2.53-5.382,5.651-3.785a11.675,11.675,0,0,1,5.651,9.567c0,3.687-2.53,5.382-5.651,3.785A11.674,11.674,0,0,1,54.756,297.312Z" transform="translate(-16.013 -254.399)" fill="url(#linear-gradient-8)"/>
    <path id="Path_20169" data-name="Path 20169" d="M2.789,0c1.658.069,3.1,2.311,3.225,5.006S4.891,9.832,3.233,9.763.131,7.452.008,4.757,1.131-.068,2.789,0Z" transform="translate(39.732 42.48) rotate(-23.078)" fill="#e9e5f6"/>
    <path id="Path_20170" data-name="Path 20170" d="M1.421,0C2.266.036,3,1.178,3.063,2.551S2.492,5.009,1.647,4.974.067,3.8,0,2.423.576-.035,1.421,0Z" transform="translate(42.029 44.104) rotate(-23.078)" fill="#7662bd"/>
    <path id="Path_5001" data-name="Path 5001" d="M345.355,400.917l-18.344,8.9-3.381-1.44v3.484l2.9,1.484a1.841,1.841,0,0,0,1.655,0l17.725-9.067a.6.6,0,0,0,.346-.531v-3.484Z" transform="translate(-244.974 -347.618)" fill="url(#linear-gradient-9)"/>
    <path id="Path_5002" data-name="Path 5002" d="M324.413,402.763l3.111,1.592,17.879-9.146v-.948l.5.258a.58.58,0,0,1,0,1.062l-17.725,9.067a1.841,1.841,0,0,1-1.655,0l-2.9-1.484Z" transform="translate(-244.972 -342.406)" fill="#a996eb"/>
    <path id="Path_5003" data-name="Path 5003" d="M389.374,373.63l7.5-3.835v1.139a2,2,0,0,1-1.143,1.755l-5.228,2.674a.755.755,0,0,1-1.126-.576Z" transform="translate(-300.959 -321.158)" fill="url(#linear-gradient-10)"/>
    <path id="Path_5004" data-name="Path 5004" d="M206.277,229.437a2.467,2.467,0,0,0-1.315-1.617l-6.868-3.519v8.85l10.254,5.245Z" transform="translate(-138.073 -194.801)" fill="url(#linear-gradient-6)"/>
    <rect id="Rectangle_2433" data-name="Rectangle 2433" width="69" height="69" transform="translate(34.617 -1.16)" fill="none"/>
  </g>
</svg>
