<svg xmlns="http://www.w3.org/2000/svg" xmlns:xlink="http://www.w3.org/1999/xlink" width="69" height="69" viewBox="0 0 69 69">
  <defs>
    <linearGradient id="linear-gradient" x1="0.283" y1="0.585" x2="0.347" y2="0.5" gradientUnits="objectBoundingBox">
      <stop offset="0" stop-color="#236568"/>
      <stop offset="1" stop-color="#2f878a"/>
    </linearGradient>
    <linearGradient id="linear-gradient-2" x1="0" y1="0.5" x2="1" y2="0.5" xlink:href="#linear-gradient"/>
  </defs>
  <g id="_003-guarantee" data-name="003-guarantee" transform="translate(-52.818 1.565)">
    <rect id="Rectangle_2436" data-name="Rectangle 2436" width="69" height="69" transform="translate(52.818 -1.565)" fill="none"/>
    <path id="Path_5014" data-name="Path 5014" d="M81.749,64.83,111.483,5.608,102.367.345a1.472,1.472,0,0,0-1.1-.339L82.262,1.549l-19.006,20.4a7.354,7.354,0,0,0-1.882,4.7v6.735c0,12.694,4.178,22.032,11.083,26.073l0,.005.288.166.018.011Z" transform="translate(0 0)" fill="url(#linear-gradient)"/>
    <path id="Path_5015" data-name="Path 5015" d="M250.373,5.608,241.256.345a1.472,1.472,0,0,0-1.1-.339L221.152,1.549l9.111,5.259Z" transform="translate(-138.89 0)" fill="url(#linear-gradient-2)"/>
    <path id="Path_5016" data-name="Path 5016" d="M151.957,41.774l-19.006,20.4a7.355,7.355,0,0,0-1.882,4.7V73.61c0,17.918,8.318,29.162,20.888,28.239,12.57-13.592,20.888-34.441,20.888-52.358V42.755c0-1.61-.751-2.617-1.882-2.525Z" transform="translate(-60.584 -34.966)" fill="#06daae"/>
    <g id="Group_4342" data-name="Group 4342" transform="translate(72.168 7.008)">
      <path id="Path_5017" data-name="Path 5017" d="M161.721,111.848a15.054,15.054,0,0,1-12.76-6.957c-3.284-4.759-5.021-11.555-5.021-19.652V78.5a5.674,5.674,0,0,1,1.431-3.551L163.71,55.267a.842.842,0,0,1,.548-.265l17.184-1.4a.841.841,0,0,1,.909.839V61.12a74.367,74.367,0,0,1-5.43,26.672,79.324,79.324,0,0,1-14.311,23.774.842.842,0,0,1-.613.28Zm3-55.2L146.6,76.1a4.03,4.03,0,0,0-.979,2.4V85.24c0,7.754,1.633,14.219,4.723,18.7a13.44,13.44,0,0,0,11.258,6.23c11.415-12.922,19.064-32.578,19.064-49.045V55.358Z" transform="translate(-143.94 -53.604)" fill="#fff"/>
    </g>
    <g id="Group_4343" data-name="Group 4343" transform="translate(83.315 13.502)">
      <path id="Path_5018" data-name="Path 5018" d="M236.669,136.785l-6.6-4.987a2.192,2.192,0,1,1,2.644-3.5l3.953,2.988,14.3-27.328a1.274,1.274,0,1,1,2.258,1.182Z" transform="translate(-229.202 -103.278)" fill="#fff"/>
    </g>
    <g id="Group_4344" data-name="Group 4344" transform="translate(78.44 18.05)">
      <path id="Path_5019" data-name="Path 5019" d="M204.849,174.108c-7.132,4.117-12.934-.269-12.934-9.778s5.8-20.595,12.934-24.712a9.565,9.565,0,0,1,6.341-1.449,6.439,6.439,0,0,1,2.9,1.295,8.165,8.165,0,0,1,2.166,2.683,15.819,15.819,0,0,1,1.525,7.25C217.782,158.9,211.98,169.99,204.849,174.108Zm0-30.6c-5.525,3.19-10.019,11.777-10.019,19.143s4.495,10.764,10.019,7.574,10.019-11.777,10.019-19.143a12.25,12.25,0,0,0-1.18-5.614,6.327,6.327,0,0,0-1.679-2.079,4.992,4.992,0,0,0-2.25-1A7.407,7.407,0,0,0,204.849,143.5Z" transform="translate(-191.915 -138.067)" fill="#fff"/>
    </g>
  </g>
</svg>
