<svg xmlns="http://www.w3.org/2000/svg" xmlns:xlink="http://www.w3.org/1999/xlink" width="69" height="69" viewBox="0 0 69 69">
  <defs>
    <linearGradient id="linear-gradient" x1="0.695" y1="0.585" x2="0.416" y2="0.251" gradientUnits="objectBoundingBox">
      <stop offset="0" stop-color="#43386b"/>
      <stop offset="1" stop-color="#7662bd"/>
    </linearGradient>
    <linearGradient id="linear-gradient-2" x1="0.5" y1="0.94" x2="0.5" y2="0.157" gradientUnits="objectBoundingBox">
      <stop offset="0" stop-color="#d5c9f1"/>
      <stop offset="1" stop-color="#f2effa"/>
    </linearGradient>
    <linearGradient id="linear-gradient-3" x1="0.5" y1="0.946" x2="0.5" y2="-0.147" gradientUnits="objectBoundingBox">
      <stop offset="0" stop-color="#a996eb"/>
      <stop offset="1" stop-color="#d7d1eb"/>
    </linearGradient>
    <linearGradient id="linear-gradient-6" x1="0" y1="0.5" x2="1" y2="0.5" xlink:href="#linear-gradient"/>
    <linearGradient id="linear-gradient-7" x1="0.426" y1="0.64" x2="0.575" y2="0.382" xlink:href="#linear-gradient"/>
  </defs>
  <g id="_049-customer_support" data-name="049-customer support" transform="translate(-23.487 1.853)">
    <g id="Group_4336" data-name="Group 4336" transform="translate(75.263 54.972)">
      <path id="Path_4976" data-name="Path 4976" d="M388.685,429.073A2.182,2.182,0,0,1,387.593,425l4.166-2.405a2.181,2.181,0,0,1,2.181,3.778l-4.166,2.405A2.173,2.173,0,0,1,388.685,429.073Z" transform="translate(-386.502 -422.305)" fill="#43386b"/>
    </g>
    <g id="Group_4337" data-name="Group 4337" transform="translate(28.686 30.45)">
      <path id="Path_4977" data-name="Path 4977" d="M104.285,258.645c0-7.465-4.539-16.138-10.138-19.37-2.815-1.625-5.2-1.507-7.2-.156l-4.34,2.506,13.713,27.8,4.707-2.733C103.031,265.378,104.285,262.569,104.285,258.645Z" transform="translate(-75.59 -237.539)" fill="url(#linear-gradient)"/>
      <ellipse id="Ellipse_351" data-name="Ellipse 351" cx="8.805" cy="15.564" rx="8.805" ry="15.564" transform="translate(0 6.903) rotate(-23.078)" fill="#a996eb"/>
      <path id="Path_4978" data-name="Path 4978" d="M73.5,296.513c0,6.684-4.064,9.756-9.077,6.862s-9.077-10.659-9.077-17.343,4.064-9.756,9.077-6.862S73.5,289.829,73.5,296.513Z" transform="translate(-51.872 -272.333)" fill="url(#linear-gradient-2)"/>
      <path id="Path_4979" data-name="Path 4979" d="M75.868,338.284c0,3.977-2.418,5.805-5.4,4.083s-5.4-6.342-5.4-10.319,2.418-5.805,5.4-4.083S75.868,334.307,75.868,338.284Z" transform="translate(-60.33 -315.159)" fill="url(#linear-gradient-3)"/>
    </g>
    <g id="Group_4338" data-name="Group 4338" transform="translate(55.283 15.057)">
      <path id="Path_4980" data-name="Path 4980" d="M335.348,144.553c0,6.684-4.064,9.756-9.077,6.862s-9.077-10.659-9.077-17.343,4.064-9.756,9.077-6.862S335.348,137.869,335.348,144.553Z" transform="translate(-306.236 -124.76)" fill="url(#linear-gradient-2)"/>
      <path id="Path_4981" data-name="Path 4981" d="M308.693,140.467c0-7.465-4.539-16.138-10.138-19.37-2.815-1.625-5.2-1.507-7.2-.156l-4.34,2.506,13.713,27.8,4.224-2.453a5.122,5.122,0,0,0,.482-.28C307.439,147.2,308.693,144.391,308.693,140.467Z" transform="translate(-279.987 -119.351)" fill="url(#linear-gradient)"/>
      <ellipse id="Ellipse_352" data-name="Ellipse 352" cx="8.805" cy="15.564" rx="8.805" ry="15.564" transform="translate(0 6.903) rotate(-23.078)" fill="#a996eb"/>
      <path id="Path_4982" data-name="Path 4982" d="M306.209,194.764c0,4.645-2.824,6.78-6.308,4.768s-6.308-7.407-6.308-12.052,2.824-6.78,6.308-4.768S306.209,190.119,306.209,194.764Z" transform="translate(-285.708 -173.327)" fill="url(#linear-gradient-6)"/>
    </g>
    <path id="Path_4983" data-name="Path 4983" d="M146,6.265l.11.016-.894-.516h0S136.875,1,136.675.969a10.215,10.215,0,0,0-9.5.432,27.254,27.254,0,0,0-13.589,23.537v7.407a8.184,8.184,0,0,1,3.95,1.216,15.78,15.78,0,0,1,3.758,3.133v.027l2.036-1.175V29.3A25.212,25.212,0,0,1,135.9,7.527a8.3,8.3,0,0,1,3.76-1.115,8.291,8.291,0,0,1,.982,3.94v6.31a8.224,8.224,0,0,1,3.895,1.214,15.841,15.841,0,0,1,3.813,3.193V21.1l2.036-1.175V14.715A10.214,10.214,0,0,0,146,6.265Z" transform="translate(-73.846 0)" fill="url(#linear-gradient-7)"/>
    <path id="Path_4984" data-name="Path 4984" d="M174.829,64.692V58.448A25.212,25.212,0,0,1,187.4,36.674a8.3,8.3,0,0,1,12.449,7.188v6.385l2.036-1.175V43.862a10.335,10.335,0,0,0-15.5-8.951,27.254,27.254,0,0,0-13.589,23.537v7.42Z" transform="translate(-125.349 -29.147)" fill="#a996eb"/>
    <g id="Group_4339" data-name="Group 4339" transform="translate(53.037 58.453)">
      <path id="Path_4985" data-name="Path 4985" d="M228.546,457.239a5.123,5.123,0,0,1-2.561-.684l-9.719-5.611a1.018,1.018,0,0,1,1.018-1.763L227,454.792a3.1,3.1,0,0,0,3.086,0l8.659-5a1.018,1.018,0,1,1,1.018,1.763l-8.659,5A5.121,5.121,0,0,1,228.546,457.239Z" transform="translate(-215.757 -449.044)" fill="#a996eb"/>
    </g>
    <rect id="Rectangle_2435" data-name="Rectangle 2435" width="69" height="69" transform="translate(23.487 -1.853)" fill="none"/>
  </g>
</svg>
